<?xml version="1.0" encoding="UTF-8" standalone="no"?>
<!-- Created with Inkscape (http://www.inkscape.org/) -->

<svg
   xmlns:dc="http://purl.org/dc/elements/1.1/"
   xmlns:cc="http://creativecommons.org/ns#"
   xmlns:rdf="http://www.w3.org/1999/02/22-rdf-syntax-ns#"
   xmlns:svg="http://www.w3.org/2000/svg"
   xmlns="http://www.w3.org/2000/svg"
   xmlns:sodipodi="http://sodipodi.sourceforge.net/DTD/sodipodi-0.dtd"
   xmlns:inkscape="http://www.inkscape.org/namespaces/inkscape"
   width="48"
   height="48"
   viewBox="0 0 48 48"
   id="svg6395"
   version="1.1"
   inkscape:version="0.91 r13725"
   sodipodi:docname="MH-Head Icon White.svg"
   inkscape:export-filename="C:\Users\gabie\Pictures\Custom Icons\Wiki Icons\Mantle Icon.png"
   inkscape:export-xdpi="523.63519"
   inkscape:export-ydpi="523.63519">
  <defs
     id="defs6397" />
  <sodipodi:namedview
     id="base"
     pagecolor="#ffffff"
     bordercolor="#666666"
     borderopacity="1.0"
     inkscape:pageopacity="0.0"
     inkscape:pageshadow="2"
     inkscape:zoom="3.959798"
     inkscape:cx="19.802224"
     inkscape:cy="-24.931486"
     inkscape:document-units="px"
     inkscape:current-layer="layer1"
     showgrid="true"
     units="px"
     inkscape:object-nodes="true"
     inkscape:window-width="1304"
     inkscape:window-height="745"
     inkscape:window-x="-8"
     inkscape:window-y="-8"
     inkscape:window-maximized="1"
     showguides="true"
     inkscape:guide-bbox="true">
    <inkscape:grid
       type="xygrid"
       id="grid6979" />
    <sodipodi:guide
       position="24,3"
       orientation="1,0"
       id="guide4164" />
  </sodipodi:namedview>
  <metadata
     id="metadata6400">
    <rdf:RDF>
      <cc:Work
         rdf:about="">
        <dc:format>image/svg+xml</dc:format>
        <dc:type
           rdf:resource="http://purl.org/dc/dcmitype/StillImage" />
        <dc:title></dc:title>
      </cc:Work>
    </rdf:RDF>
  </metadata>
  <g
     inkscape:label="Layer 1"
     inkscape:groupmode="layer"
     id="layer1"
     transform="translate(0,-1004.3622)">
    <path
       style="display:inline;fill:#ffffff;fill-rule:evenodd;stroke:#000000;stroke-width:2;stroke-linecap:butt;stroke-linejoin:miter;stroke-miterlimit:4;stroke-dasharray:none;stroke-opacity:1"
       d="m 3.0000002,1031.3622 0,-7 c 0,0 0,-2 1.9999998,-2 l 7,0 c 0,0 2,0 2,-2 l 0,-4 c 0,0 0,-3 3,-3 l 14,0 c 0,0 6.63209,0.01 7,7 l 0,19 0,2 c 0,0 0,2 -2,2 l -27,0 -2,0 c 0,0 -3,0 -3,-3 0,-3 0,-3 0,-3 0,0 0,-1 1,-1 1,0 3,0 3,0 0,0 1,0 1,1 0,1 0,1 0,1 l 4,0 0,-1 c 0,0 0,-1 1,-1 1,0 3,0 3,0 0,0 1,0 1,1 0,1 0,1 0,1 l 4,0 0,-7 -4,0 0,1 c 0,0 0,1 -1,1 -1,0 -3,0 -3,0 0,0 -1,0 -1,-1 0,-1 0,-1 0,-1 l -5,0 0,1 c 0,0 0,1 -1,1 -1,0 -3,0 -3,0 0,0 -0.9999998,0 -0.9999998,-1 0,-1 0,-1 0,-1 z"
       id="path4928"
       inkscape:connector-curvature="0"
       sodipodi:nodetypes="ccscccscsccsc" />
    <path
       style="display:inline;fill:#929292;fill-opacity:1;fill-rule:evenodd;stroke:#000000;stroke-width:2;stroke-linecap:butt;stroke-linejoin:miter;stroke-miterlimit:4;stroke-dasharray:none;stroke-opacity:1"
       d="m 25,1022.3622 c 0,0 0,-1 1,-1 1,0 5,0 5,0 0,0 1,0 1,1 0,1 0,3 0,3 0,0 0,1 -1,1 -1,0 -5,0 -5,0 0,0 -1,0 -1,-1 0,-1 0,-3 0,-3 z"
       id="path4930"
       inkscape:connector-curvature="0" />
    <path
       style="display:inline;fill:none;fill-rule:evenodd;stroke:#000000;stroke-width:2;stroke-linecap:round;stroke-linejoin:round;stroke-miterlimit:4;stroke-dasharray:none;stroke-opacity:1"
       d="m 38,1031.3622 -10,0 c 0,0 -2,0 -2,2 l 0,4 c 0,0 0,2 2,2 l 4,0 c 0,0 2,0 2,-2 l 0,-1 c 0,0 0,-2 -2,-2 -2,0 -3,0 -3,1 0,1 1,1 1,1"
       id="path4932"
       inkscape:connector-curvature="0"
       sodipodi:nodetypes="ccscscc" />
    <path
       style="display:inline;fill:#474747;fill-opacity:1;fill-rule:evenodd;stroke:#000000;stroke-width:2;stroke-linecap:round;stroke-linejoin:round;stroke-miterlimit:4;stroke-dasharray:none;stroke-opacity:1"
       d="m 41,1021.3622 0,-8 4,4 z"
       id="path4934"
       inkscape:connector-curvature="0" />
    <path
       style="display:inline;fill:#474747;fill-opacity:1;fill-rule:evenodd;stroke:#000000;stroke-width:2;stroke-linecap:round;stroke-linejoin:round;stroke-miterlimit:4;stroke-dasharray:none;stroke-opacity:1"
       d="m 41,1032.3622 0,-8 4,4 z"
       id="path4934-4"
       inkscape:connector-curvature="0" />
    <path
       style="display:inline;fill:#474747;fill-opacity:1;fill-rule:evenodd;stroke:#000000;stroke-width:2;stroke-linecap:round;stroke-linejoin:round;stroke-miterlimit:4;stroke-dasharray:none;stroke-opacity:1"
       d="m 41,1043.3622 0,-8 4,4 z"
       id="path4934-0"
       inkscape:connector-curvature="0" />
  </g>
</svg>
